<svg width="31" height="30" viewBox="0 0 31 30" fill="none" xmlns="http://www.w3.org/2000/svg">
<path fill-rule="evenodd" clip-rule="evenodd" d="M16.276 1.3346C15.5524 0.769328 14.5369 0.769327 13.8134 1.3346L0.768712 11.5257C0.283554 11.9048 0 12.4861 0 13.1018V27.8532C0 28.9578 0.895426 29.8532 2 29.8532H10.2168V29.7309H10.7779V22.2698C10.7779 20.1557 12.4917 18.4419 14.6058 18.4419C16.7198 18.4419 18.4336 20.1557 18.4336 22.2698V29.7309H18.9947V29.8532H28.0893C29.1939 29.8532 30.0893 28.9578 30.0893 27.8532V13.1018C30.0893 12.4861 29.8058 11.9048 29.3206 11.5257L16.276 1.3346ZM20.4336 27.8532H28.0893L28.0893 13.1018L15.0447 2.91064L2 13.1018V27.8532H8.77792V22.2698C8.77792 19.0511 11.3871 16.4419 14.6058 16.4419C17.8244 16.4419 20.4336 19.0511 20.4336 22.2698V27.8532Z" fill="#C4C4C4"/>
</svg>
