<svg width="28" height="41" viewBox="0 0 28 41" fill="none" xmlns="http://www.w3.org/2000/svg">
<path d="M13.8459 40.2714C12.9669 40.2714 12.1797 39.8156 11.7403 39.0519C11.7357 39.0439 11.7312 39.0358 11.7267 39.0277L1.74051 20.7493C-0.643209 16.3863 -0.574858 11.2075 1.92339 6.89628C4.36744 2.67848 8.70857 0.101662 13.5359 0.00318553C13.7422 -0.00106184 13.9495 -0.00106184 14.1556 0.00318553C18.983 0.101662 23.3242 2.67848 25.7683 6.89628C28.2666 11.2075 28.3349 16.3862 25.9512 20.7493L15.965 39.0277C15.9605 39.0358 15.956 39.0439 15.9514 39.0519C15.5121 39.8155 14.725 40.2714 13.8459 40.2714ZM13.8458 2.517C13.7594 2.517 13.6732 2.51787 13.5872 2.5196C9.64661 2.59998 6.10036 4.70786 4.10103 8.15823C2.04758 11.702 1.99079 15.9578 3.94923 19.5424L13.8458 37.6567L23.7424 19.5425C25.7008 15.9578 25.6441 11.702 23.5905 8.15823C21.5912 4.70794 18.0449 2.59998 14.1044 2.5196C14.0186 2.51787 13.9323 2.517 13.8458 2.517Z" fill="#C4C4C4"/>
<path d="M13.8458 18.248C10.7231 18.248 8.18262 15.7075 8.18262 12.5849C8.18262 9.46217 10.7231 6.92169 13.8458 6.92169C16.9685 6.92169 19.509 9.46217 19.509 12.5849C19.509 15.7075 16.9686 18.248 13.8458 18.248ZM13.8458 9.43866C12.111 9.43866 10.6996 10.85 10.6996 12.5849C10.6996 14.3197 12.111 15.7311 13.8458 15.7311C15.5806 15.7311 16.992 14.3197 16.992 12.5849C16.992 10.85 15.5806 9.43866 13.8458 9.43866Z" fill="#C4C4C4"/>
</svg>
