<svg width="34" height="34" viewBox="0 0 34 34" fill="none" xmlns="http://www.w3.org/2000/svg">
<path d="M17 0C7.60455 0 0 7.60326 0 17C0 19.9818 0.777679 22.8941 2.25444 25.4626L0.0640717 32.2646C-0.0887146 32.7388 0.0368347 33.2586 0.389099 33.6109C0.737991 33.9598 1.25653 34.09 1.73538 33.9359L8.53735 31.7456C11.1059 33.2223 14.0182 34 17 34C26.3954 34 34 26.3967 34 17C34 7.60455 26.3967 0 17 0ZM17 31.3438C14.3067 31.3438 11.6813 30.5923 9.40764 29.1705C9.08054 28.9661 8.67432 28.9108 8.29637 29.0325L3.3862 30.6138L4.9675 25.7036C5.08734 25.3311 5.03676 24.9244 4.82924 24.5924C3.40773 22.3187 2.65625 19.6933 2.65625 17C2.65625 9.09091 9.09091 2.65625 17 2.65625C24.9091 2.65625 31.3438 9.09091 31.3438 17C31.3438 24.9091 24.9091 31.3438 17 31.3438ZM18.6602 17C18.6602 17.9167 17.917 18.6602 17 18.6602C16.083 18.6602 15.3398 17.9167 15.3398 17C15.3398 16.083 16.083 15.3398 17 15.3398C17.917 15.3398 18.6602 16.083 18.6602 17ZM25.3008 17C25.3008 17.9167 24.5576 18.6602 23.6406 18.6602C22.7236 18.6602 21.9805 17.9167 21.9805 17C21.9805 16.083 22.7236 15.3398 23.6406 15.3398C24.5576 15.3398 25.3008 16.083 25.3008 17ZM12.0195 17C12.0195 17.9167 11.2764 18.6602 10.3594 18.6602C9.44266 18.6602 8.69922 17.9167 8.69922 17C8.69922 16.083 9.44266 15.3398 10.3594 15.3398C11.2764 15.3398 12.0195 16.083 12.0195 17Z" fill="#C4C4C4"/>
</svg>
